# xmcd
#
# Track frame offsets: 
#        150
#        21400
#        39120
#        56890
#        75715
#        99652
#        119415
#        136535
#        151892
#        169710
#        191302
#
# Disc length: 2885 seconds
#
# Revision: 1
# Processed by: cddbd v1.5.2PL0 Copyright (c) Steve Scherf et al.
# Submitted via: ExactAudioCopy v0.99pb5
#
DISCID=820b430b
DTITLE=Eddie Kirkland - Lonely Street
DYEAR=1900
DGENRE=Blues
TTITLE0=Lonely Street
TTITLE1=Dixie
TTITLE2=Done Somebody Wrong
TTITLE3=Snake In The Grass
TTITLE4=Pick Up The Pieces
TTITLE5=Dark Nights
TTITLE6=Respect For My Woman
TTITLE7=Blue River
TTITLE8=Nightgirl
TTITLE9=Money, That's What I Want
TTITLE10=Gates of Heaven
EXTD=
EXTT0=
EXTT1=
EXTT2=
EXTT3=
EXTT4=
EXTT5=
EXTT6=
EXTT7=
EXTT8=
EXTT9=
EXTT10=
PLAYORDER=
